<svg width="24" height="21" viewBox="0 0 24 21" fill="none" xmlns="http://www.w3.org/2000/svg">
<g clip-path="url(#clip0_289_47)">
<path d="M19.7328 6.79956C19.4774 6.71347 19.2198 6.63371 18.9603 6.56037C19.0039 6.38537 19.044 6.21248 19.0796 6.04264C19.6644 3.2536 19.2821 1.00669 17.9763 0.266905C16.7242 -0.442306 14.6767 0.297208 12.6087 2.06535C12.4049 2.23992 12.2056 2.41952 12.0111 2.60398C11.8808 2.48132 11.7483 2.36104 11.6135 2.24321C9.44616 0.352655 7.27378 -0.444148 5.96934 0.29776C4.71844 1.00918 4.34803 3.12143 4.87453 5.76467C4.92691 6.02645 4.98606 6.28689 5.05191 6.54572C4.74441 6.63156 4.44769 6.72293 4.16372 6.82019C1.62272 7.69059 0 9.05458 0 10.4694C0 11.9307 1.74206 13.3963 4.38863 14.2851C4.60319 14.3568 4.81954 14.4233 5.03747 14.4845C4.96669 14.7632 4.90385 15.0439 4.84903 15.3261C4.34709 17.9235 4.73906 19.9858 5.98659 20.6927C7.27509 21.4227 9.43772 20.6725 11.5434 18.864C11.7142 18.7169 11.8812 18.5658 12.0443 18.4105C12.255 18.6103 12.4713 18.8042 12.693 18.9921C14.7328 20.7165 16.7473 21.4128 17.9936 20.704C19.2809 19.9718 19.6993 17.7563 19.1561 15.0609C19.1133 14.8497 19.0654 14.6396 19.0122 14.4307C19.1641 14.3865 19.3132 14.341 19.4585 14.2936C22.2098 13.3981 24 11.9502 24 10.4694C24 9.04942 22.3249 7.67622 19.7328 6.79956ZM19.1361 13.3376C19.0048 13.3802 18.8702 13.4214 18.7329 13.4614C18.4292 12.5167 18.0193 11.5122 17.5177 10.4743C17.9963 9.46113 18.3905 8.46943 18.6857 7.53088C18.9312 7.60069 19.1694 7.67429 19.3991 7.75193C21.6201 8.50314 22.9747 9.61365 22.9747 10.4694C22.9747 11.3809 21.5117 12.5642 19.1361 13.3376ZM18.1504 15.2565C18.3906 16.4483 18.4248 17.526 18.2657 18.3684C18.1228 19.1255 17.8354 19.6301 17.4799 19.8323C16.7236 20.2624 15.1061 19.7033 13.3617 18.2285C13.1555 18.0538 12.9543 17.8736 12.7582 17.6879C13.4346 16.9613 14.1104 16.1166 14.77 15.1784C15.9303 15.0772 17.0264 14.9118 18.0204 14.6861C18.0683 14.8752 18.1116 15.0654 18.1504 15.2565ZM8.18213 19.7579C7.44319 20.0143 6.85462 20.0216 6.49884 19.8201C5.74181 19.3912 5.42709 17.7352 5.85637 15.514C5.9074 15.2515 5.96583 14.9905 6.03159 14.7312C7.01466 14.9449 8.10281 15.0985 9.26578 15.1912C9.92991 16.1092 10.6252 16.953 11.326 17.6918C11.1771 17.8334 11.0247 17.9714 10.8688 18.1056C9.93759 18.9052 9.0045 19.4726 8.18213 19.7579ZM4.72031 13.3319C3.55003 12.9389 2.58356 12.4282 1.92113 11.8709C1.32581 11.3701 1.02534 10.8728 1.02534 10.4694C1.02534 9.6108 2.32819 8.51567 4.50122 7.77137C4.76494 7.6811 5.04094 7.5959 5.32734 7.51596C5.62772 8.47569 6.02166 9.47918 6.49706 10.4939C6.01547 11.5236 5.61591 12.5432 5.31262 13.5142C5.1137 13.4582 4.9162 13.3975 4.72031 13.3319ZM5.88075 5.57115C5.42972 3.30656 5.72925 1.59829 6.48309 1.16954C7.28597 0.712879 9.06141 1.36397 10.9327 2.99644C11.0548 3.10314 11.1748 3.21199 11.2928 3.32296C10.5955 4.0586 9.90656 4.89612 9.24834 5.80869C8.11959 5.91148 7.03912 6.07654 6.04575 6.29768C5.98455 6.05694 5.92953 5.81462 5.88075 5.57115ZM16.2333 8.08277C15.9986 7.68459 15.7553 7.29143 15.5034 6.90355C16.2692 6.99869 17.0029 7.12497 17.6918 7.27934C17.485 7.93071 17.2272 8.61164 16.9238 9.3098C16.7019 8.89632 16.4717 8.48723 16.2333 8.08277ZM12.0115 4.04294C12.4844 4.5463 12.958 5.10823 13.4239 5.71797C12.4789 5.67412 11.5323 5.67394 10.5873 5.71742C11.0536 5.1133 11.5313 4.5521 12.0115 4.04294ZM7.76269 8.08959C7.52722 8.49079 7.30131 8.89733 7.08516 9.30888C6.78666 8.61321 6.53119 7.92914 6.32259 7.26856C7.00734 7.11806 7.73756 6.99501 8.49844 6.90162C8.24376 7.29186 7.99844 7.68803 7.76269 8.08959ZM8.52028 14.1089C7.73419 14.0226 6.993 13.9059 6.30844 13.7595C6.52031 13.0871 6.78141 12.3885 7.08637 11.6779C7.30339 12.0898 7.53024 12.4966 7.76672 12.8979C8.00991 13.3106 8.26172 13.7147 8.52028 14.1089ZM12.0398 16.9669C11.5538 16.4518 11.0692 15.882 10.5958 15.2691C11.0554 15.2868 11.5238 15.2958 12 15.2958C12.4892 15.2958 12.9728 15.285 13.4487 15.2642C12.9814 15.8881 12.5095 16.4588 12.0398 16.9669ZM16.9334 11.6416C17.2542 12.36 17.5246 13.055 17.7393 13.7158C17.0435 13.8719 16.2922 13.9975 15.5005 14.0908C15.7542 13.6957 15.9998 13.2957 16.2373 12.891C16.4788 12.4797 16.7108 12.0631 16.9334 11.6416ZM15.3492 12.3878C14.9857 13.0082 14.6017 13.6169 14.1979 14.2128C13.4664 14.2637 12.7333 14.289 12 14.2886C11.2531 14.2886 10.5266 14.2658 9.82706 14.2212C9.41271 13.6267 9.0214 13.0169 8.65397 12.3933C8.28827 11.773 7.94677 11.1392 7.63003 10.4934C7.94597 9.8475 8.28652 9.21346 8.65097 8.59267L8.65088 8.59276C9.01519 7.97181 9.40337 7.36467 9.81459 6.77267C10.5283 6.71962 11.2602 6.69198 11.9999 6.69198C12.743 6.69198 13.4759 6.71989 14.1894 6.77331C14.5965 7.36443 14.9822 7.96948 15.3458 8.58733C15.7115 9.20675 16.0566 9.8377 16.3805 10.4792C16.0599 11.1272 15.7159 11.7638 15.3492 12.3878ZM17.4642 1.13951C18.2678 1.59488 18.5804 3.43118 18.0755 5.83927C18.0432 5.9929 18.007 6.14939 17.9677 6.30809C16.9718 6.08225 15.8906 5.91434 14.7586 5.80998C14.0992 4.88737 13.4158 4.04856 12.7298 3.3224C12.9096 3.15215 13.0937 2.98631 13.2818 2.82504C15.0537 1.31018 16.7097 0.71205 17.4642 1.13951ZM12 8.36388C13.1836 8.36388 14.1431 9.30658 14.1431 10.4694C14.1431 11.6322 13.1836 12.5749 12 12.5749C10.8164 12.5749 9.85687 11.6322 9.85687 10.4694C9.85687 9.30658 10.8164 8.36388 12 8.36388Z" fill="#00D8FF"/>
</g>
<defs>
<clipPath id="clip0_289_47">
<rect width="24" height="21" fill="white"/>
</clipPath>
</defs>
</svg>
