<svg width="32" height="28" viewBox="0 0 32 28" fill="none" xmlns="http://www.w3.org/2000/svg">
<path opacity="0.975" fill-rule="evenodd" clip-rule="evenodd" d="M31.9688 2.03125C31.9688 9.98956 31.9688 17.9479 31.9688 25.9062C31.6132 27.001 30.8632 27.6364 29.7188 27.8125C20.5521 27.8542 11.3854 27.8542 2.21875 27.8125C1.07432 27.6364 0.324324 27.001 -0.03125 25.9062C-0.03125 17.9479 -0.03125 9.98956 -0.03125 2.03125C0.324324 0.936483 1.07432 0.30107 2.21875 0.125002C11.3854 0.0833328 20.5521 0.0833328 29.7188 0.125002C30.8632 0.30107 31.6132 0.936483 31.9688 2.03125ZM2.40625 2.28125C11.4479 2.27083 20.4896 2.28125 29.5312 2.3125C29.6207 2.34158 29.6936 2.39366 29.75 2.46875C29.7812 3.4477 29.7917 4.42688 29.7812 5.40625C20.5729 5.40625 11.3646 5.40625 2.15625 5.40625C2.14584 4.42688 2.15626 3.4477 2.1875 2.46875C2.25907 2.39773 2.33198 2.33523 2.40625 2.28125ZM2.15625 7.59375C11.3646 7.59375 20.5729 7.59375 29.7812 7.59375C29.7917 13.5521 29.7812 19.5104 29.75 25.4688C29.6936 25.5438 29.6207 25.5959 29.5312 25.625C20.4896 25.6667 11.4479 25.6667 2.40625 25.625C2.31682 25.5959 2.24391 25.5438 2.1875 25.4688C2.15625 19.5104 2.14583 13.5521 2.15625 7.59375Z" fill="white"/>
</svg>
