<svg width="33" height="32" viewBox="0 0 33 32" fill="none" xmlns="http://www.w3.org/2000/svg">
<path d="M16.5 13C23.1274 13 28.5 10.7614 28.5 8C28.5 5.23858 23.1274 3 16.5 3C9.87258 3 4.5 5.23858 4.5 8C4.5 10.7614 9.87258 13 16.5 13Z" stroke="white" stroke-width="2" stroke-miterlimit="10" stroke-linecap="round"/>
<path d="M28.5 13.375C28.5 16.1363 23.125 18.375 16.5 18.375C9.875 18.375 4.5 16.1363 4.5 13.375M28.5 18.75C28.5 21.5113 23.125 23.75 16.5 23.75C9.875 23.75 4.5 21.5113 4.5 18.75" stroke="white" stroke-width="2" stroke-miterlimit="10" stroke-linecap="round"/>
<path d="M4.5 7.95251V24.0475C4.5 26.7825 9.875 29 16.5 29C23.125 29 28.5 26.7825 28.5 24.0475V7.95251" stroke="white" stroke-width="2" stroke-miterlimit="10" stroke-linecap="round"/>
</svg>
