<?xml version="1.0" encoding="utf-8"?>
<!-- Generator: Adobe Illustrator 27.0.1, SVG Export Plug-In . SVG Version: 6.00 Build 0)  -->
<svg version="1.1" id="Layer_1" xmlns="http://www.w3.org/2000/svg" xmlns:xlink="http://www.w3.org/1999/xlink" x="0px" y="0px"
	 viewBox="0 0 370 257.5" style="enable-background:new 0 0 370 257.5;" xml:space="preserve">
<style type="text/css">
	.st0{clip-path:url(#SVGID_00000029023263913610129810000016391624066427070872_);}
	.st1{fill:#D82E00;}
	.st2{fill:#FF5E00;}
	.st3{fill:#1800E7;}
</style>
<g>
	<defs>
		<rect id="SVGID_1_" y="0" width="370" height="257.5"/>
	</defs>
	<clipPath id="SVGID_00000128472399818232649040000004942496150906290623_">
		<use xlink:href="#SVGID_1_"  style="overflow:visible;"/>
	</clipPath>
	<g style="clip-path:url(#SVGID_00000128472399818232649040000004942496150906290623_);">
		<path class="st1" d="M306.6,22.8c-17.9,12.1-28.1,31.9-28.1,31.9C325.4,24.1,370,31.9,370,31.9C364.4,19.7,336.8,2.4,306.6,22.8"
			/>
		<path class="st2" d="M243.9,40.5c7.1,11.7-12.5,29.8-12.5,29.8c32.8-3.8,50.4-24.6,47.3-41.9C275.8,12,256.5,0,221.2,0
			c-58.9,0-96.4,29.6-96.4,29.6C186.8,19.4,233.7,23.7,243.9,40.5"/>
		<path class="st3" d="M67.4,240.1h10.9c-0.3,2.9-1.3,5-3,6.3c-1.8,1.3-4.5,2-8.2,2c-2.8,0.2-5.6-0.7-8-2.3c-2-1.5-3-4.5-3-8.8v-6.9
			c0-4.4,1-7.4,3-9c2.3-1.6,5.1-2.4,7.9-2.3c2.4-0.1,4.8,0.4,6.9,1.4c1.7,0.9,2.8,2.7,3.2,5.3h11.9c-0.7-5.8-2.9-9.9-6.6-12.2
			c-3.8-2.4-8.9-3.6-15.4-3.6c-3.2,0-6.4,0.4-9.5,1.2c-2.7,0.7-5.1,2.1-7.1,4c-2.1,2-3.6,4.5-4.5,7.3c-1.1,3.6-1.7,7.4-1.6,11.2
			c-0.1,3.8,0.4,7.7,1.6,11.3c0.9,2.8,2.4,5.3,4.5,7.4c2,1.9,4.5,3.2,7.1,3.9c3.1,0.8,6.3,1.2,9.5,1.2c7.1,0,12.6-1.6,16.6-4.8
			c4.1-3.2,6.1-8.1,6.1-14.8V232H67.4L67.4,240.1z"/>
		<path class="st3" d="M178.5,215c-2.2-1.9-4.8-3.2-7.6-3.9c-3.4-0.8-6.9-1.2-10.5-1.2c-3.5,0-7,0.3-10.4,1.2
			c-2.8,0.7-5.4,2-7.6,3.9c-2.2,2-3.8,4.4-4.7,7.2c-1.2,3.6-1.7,7.3-1.6,11c-0.1,3.9,0.4,7.8,1.6,11.6c0.9,2.8,2.5,5.4,4.7,7.5
			c2.2,1.9,4.8,3.3,7.6,4c3.4,0.8,6.9,1.2,10.4,1.2c3.5,0,7-0.4,10.5-1.2c2.8-0.7,5.5-2.1,7.6-4c2.2-2.1,3.8-4.6,4.7-7.5
			c1.2-3.7,1.7-7.6,1.6-11.6c0.1-3.7-0.5-7.5-1.6-11C182.3,219.4,180.7,216.9,178.5,215 M173,236.5c0,4.6-1.1,7.7-3.2,9.3
			c-2.1,1.7-5.2,2.5-9.4,2.5s-7.3-0.8-9.4-2.5c-2.1-1.7-3.2-4.8-3.2-9.3v-5.7c0-4.3,1-7.4,3.2-9.1c2.1-1.7,5.2-2.6,9.4-2.6
			s7.3,0.9,9.4,2.6c2.1,1.7,3.2,4.8,3.2,9.1V236.5z"/>
		<path class="st3" d="M226.6,232.4c2.4-0.6,4.5-2.1,5.9-4.2c1.1-1.9,1.7-4,1.6-6.2c0-3.7-1.2-6.5-3.7-8.3
			c-2.4-1.9-5.9-2.8-10.4-2.8h-25v45.7h25.6c4.9,0,8.5-1.2,10.9-3.5c2.4-2.3,3.6-5.6,3.6-9.9c0.1-2.4-0.7-4.7-2-6.7
			C231.9,234.6,229.7,233.3,226.6,232.4 M206.6,218.9h10.5c1.4-0.1,2.9,0.3,4.1,1.2c1,0.8,1.5,2,1.4,3.2v1.5
			c0.1,1.3-0.4,2.6-1.4,3.5c-1.2,0.9-2.6,1.3-4.1,1.2h-10.5V218.9z M223.8,243.7c0.1,1.4-0.5,2.7-1.6,3.6c-1.3,0.9-2.9,1.3-4.5,1.2
			h-11.1v-11.7h11.1c1.6-0.1,3.2,0.3,4.6,1.3c1,0.9,1.6,2.2,1.5,3.5L223.8,243.7z"/>
		<path class="st3" d="M256.3,210.8l-16.1,45.7h10.6l3.4-10h19.1l3.4,10h12.1l-16.1-45.7L256.3,210.8z M257.2,237.9l6.5-18.9
			l6.6,18.9H257.2z"/>
		<path class="st3" d="M327.2,246.9v-0.7h-18.8v-35.3h-11.6v45.7h30.5L327.2,246.9L327.2,246.9z"/>
		<path class="st3" d="M137.3,77.7H0v35.4h42.5c1.4,0,2.5,1.1,2.5,2.5c0,0,0,0,0,0V182h47.4v-66.4c0-1.4,1.1-2.5,2.5-2.5
			c0,0,0,0,0,0h42.5L137.3,77.7z"/>
		<path class="st3" d="M196.8,129.5L196.8,129.5L196.8,129.5L226,182h22.4l29.1-52.5v0l0,0c0.4-0.7,1.2-1.1,2-1.1
			c1.3,0,2.3,1,2.4,2.3h0V182h45.3V77.7h-58.5v0c-0.2,0-0.3,0-0.5,0c-1.3,0.1-2.5,0.7-3.3,1.7c-0.2,0.3-0.4,0.5-0.6,0.8l-25,45.1h0
			c-0.4,0.8-1.2,1.2-2.1,1.3c-0.9,0-1.7-0.5-2.1-1.3h0l-0.1-0.2l0,0l-24.9-44.8c-0.8-1.4-2.2-2.3-3.7-2.5l-0.1,0c-0.2,0-0.3,0-0.5,0
			v0h-58.5V182h45.3v-51.2h0c0-0.3,0.1-0.7,0.3-1c0.4-0.8,1.2-1.3,2.1-1.3C195.7,128.5,196.4,128.9,196.8,129.5"/>
		<path class="st3" d="M130.5,246.2h-18.8v-35.3h-11.6v45.7h30.4v-9.7h0L130.5,246.2z"/>
	</g>
</g>
</svg>
