<svg width="160" height="35" viewBox="0 0 160 35" fill="none" xmlns="http://www.w3.org/2000/svg">
<path fill-rule="evenodd" clip-rule="evenodd" d="M11.4901 0.5C6.08295 0.5 0 4.95523 0 13.4362C0 17.6754 8.78733 30.2632 11.4901 34.5C14.1931 30.2632 22.9801 17.6754 22.9801 13.4362C22.9801 4.95523 16.8972 0.5 11.4901 0.5Z" fill="#EE5555"/>
<path fill-rule="evenodd" clip-rule="evenodd" d="M3.89843 11.9182C3.89843 7.72376 7.30032 4.32091 11.4924 4.32091C15.6875 4.32091 19.0868 7.72376 19.0868 11.9182C19.0868 16.1117 15.6875 19.5092 11.4924 19.5092C7.30032 19.5092 3.89843 16.1117 3.89843 11.9182Z" fill="#B5312F"/>
<path fill-rule="evenodd" clip-rule="evenodd" d="M7.52903 11.9187C7.52903 9.72615 9.30444 7.95145 11.4933 7.95145C13.6822 7.95145 15.4563 9.72615 15.4563 11.9187C15.4563 14.1053 13.6822 15.8787 11.4933 15.8787C9.30444 15.8787 7.52903 14.1053 7.52903 11.9187Z" fill="#FEFEFE"/>
<path d="M31.4594 7.834H35.0357V15.9667H35.2476L42.1882 7.834H46.5062V8.04593L39.6451 15.8872L47.2215 26.5896V26.8015H42.8505L37.2079 18.7218L35.0357 21.2384V26.8015H31.4594V7.834Z" fill="white"/>
<path d="M54.717 7.834H58.7966L65.9226 26.8015H61.9755L60.4125 22.2715H53.101L51.538 26.8015H47.5909L54.717 7.834ZM59.2469 18.9867L57.5515 14.2448L56.8627 11.9401H56.6508L55.962 14.2448L54.2666 18.9867H59.2469Z" fill="white"/>
<path d="M70.4364 26.8015V11.2248H65.1382V7.834H79.3109V11.2248H74.0127V26.8015H70.4364Z" fill="white"/>
<path d="M87.397 27.2253C86.5846 27.2253 85.8075 27.1105 85.0658 26.881C84.3241 26.6514 83.6441 26.307 83.026 25.8478C82.4079 25.3886 81.8692 24.8323 81.4101 24.1789C80.9509 23.5078 80.5888 22.7307 80.3239 21.8477L83.6883 20.5231C83.9355 21.4768 84.3682 22.2715 84.9863 22.9073C85.6044 23.5254 86.4168 23.8345 87.4235 23.8345C87.7944 23.8345 88.1476 23.7904 88.4831 23.7021C88.8363 23.5961 89.1454 23.4548 89.4103 23.2782C89.6929 23.0839 89.9136 22.8455 90.0726 22.5629C90.2315 22.2804 90.311 21.9537 90.311 21.5828C90.311 21.2296 90.2492 20.9117 90.1256 20.6291C90.0019 20.3465 89.79 20.0816 89.4898 19.8344C89.2072 19.5871 88.8275 19.3487 88.3507 19.1191C87.8915 18.8895 87.3175 18.6511 86.6288 18.4039L85.4632 17.98C84.951 17.8034 84.43 17.565 83.9002 17.2648C83.388 16.9645 82.92 16.6025 82.4962 16.1786C82.0723 15.7548 81.7191 15.2603 81.4365 14.6951C81.1716 14.1123 81.0392 13.4589 81.0392 12.7348C81.0392 11.9931 81.1805 11.3043 81.463 10.6685C81.7633 10.0151 82.1783 9.44995 82.7081 8.97311C83.2556 8.47862 83.9002 8.09891 84.6419 7.834C85.4014 7.55143 86.2402 7.41015 87.1586 7.41015C88.1123 7.41015 88.9335 7.5426 89.6222 7.80751C90.3287 8.05476 90.9203 8.38148 91.3971 8.78768C91.8916 9.17621 92.289 9.60889 92.5892 10.0857C92.8894 10.5626 93.1102 11.0129 93.2515 11.4368L90.0991 12.7613C89.9225 12.2315 89.5957 11.7547 89.1189 11.3308C88.6597 10.9069 88.0239 10.695 87.2116 10.695C86.4345 10.695 85.7899 10.8805 85.2777 11.2513C84.7656 11.6045 84.5095 12.0725 84.5095 12.6553C84.5095 13.2205 84.7567 13.7062 85.2512 14.1123C85.7457 14.5009 86.5316 14.8806 87.6089 15.2515L88.801 15.6488C89.5604 15.9137 90.2492 16.2228 90.8673 16.576C91.5031 16.9116 92.0417 17.3177 92.4832 17.7946C92.9424 18.2714 93.2868 18.8189 93.5164 19.437C93.7636 20.0375 93.8873 20.7351 93.8873 21.5298C93.8873 22.5188 93.6842 23.3753 93.278 24.0994C92.8894 24.8058 92.3861 25.3886 91.768 25.8478C91.1499 26.307 90.4523 26.6514 89.6752 26.881C88.8981 27.1105 88.1387 27.2253 87.397 27.2253Z" fill="white"/>
<path d="M102.111 7.834H106.19L113.316 26.8015H109.369L107.806 22.2715H100.495L98.9319 26.8015H94.9848L102.111 7.834ZM106.641 18.9867L104.945 14.2448L104.257 11.9401H104.045L103.356 14.2448L101.66 18.9867H106.641Z" fill="white"/>
<path d="M115.537 7.834H119.696L127.325 20.5496H127.537L127.325 16.8939V7.834H130.875V26.8015H127.113L119.06 13.3706H118.848L119.06 17.0263V26.8015H115.537V7.834Z" fill="white"/>
<path d="M140.217 7.834H144.297L151.423 26.8015H147.476L145.913 22.2715H138.601L137.038 26.8015H133.091L140.217 7.834ZM144.747 18.9867L143.052 14.2448L142.363 11.9401H142.151L141.462 14.2448L139.767 18.9867H144.747Z" fill="white"/>
<path d="M155.964 14.1998C155.455 14.1998 154.979 14.1044 154.534 13.9137C154.099 13.7229 153.712 13.4633 153.373 13.1348C153.045 12.7957 152.785 12.409 152.594 11.9745C152.404 11.5295 152.308 11.0526 152.308 10.544C152.308 10.046 152.404 9.57446 152.594 9.12941C152.785 8.68436 153.045 8.29759 153.373 7.96911C153.712 7.63002 154.099 7.36511 154.534 7.17438C154.979 6.98365 155.455 6.88828 155.964 6.88828C156.462 6.88828 156.934 6.98365 157.379 7.17438C157.824 7.36511 158.211 7.63002 158.539 7.96911C158.878 8.29759 159.143 8.68436 159.334 9.12941C159.524 9.57446 159.62 10.046 159.62 10.544C159.62 11.0526 159.524 11.5295 159.334 11.9745C159.143 12.409 158.878 12.7957 158.539 13.1348C158.211 13.4633 157.824 13.7229 157.379 13.9137C156.934 14.1044 156.462 14.1998 155.964 14.1998ZM155.964 13.4368C156.367 13.4368 156.743 13.3627 157.093 13.2143C157.442 13.0554 157.75 12.8434 158.014 12.5785C158.279 12.3136 158.486 12.0063 158.634 11.6566C158.783 11.307 158.857 10.9361 158.857 10.544C158.857 10.1414 158.783 9.76519 158.634 9.41551C158.486 9.06583 158.279 8.75854 158.014 8.49363C157.75 8.22872 157.442 8.02209 157.093 7.87374C156.743 7.72539 156.367 7.65122 155.964 7.65122C155.572 7.65122 155.201 7.72539 154.851 7.87374C154.502 8.02209 154.194 8.22872 153.93 8.49363C153.665 8.75854 153.453 9.06583 153.294 9.41551C153.145 9.76519 153.071 10.1414 153.071 10.544C153.071 10.9361 153.145 11.307 153.294 11.6566C153.453 12.0063 153.665 12.3136 153.93 12.5785C154.194 12.8434 154.502 13.0554 154.851 13.2143C155.201 13.3627 155.572 13.4368 155.964 13.4368ZM154.74 12.3401V8.74794H156.266C156.573 8.74794 156.844 8.8592 157.077 9.08173C157.31 9.29365 157.426 9.56386 157.426 9.89235C157.426 10.1361 157.347 10.3586 157.188 10.5599C157.04 10.7507 156.854 10.8778 156.632 10.9414L156.6 10.9732L157.554 12.3083V12.3401H156.727L155.853 11.005H155.471V12.3401H154.74ZM156.202 10.3374C156.33 10.3374 156.441 10.3003 156.536 10.2261C156.642 10.1414 156.695 10.0301 156.695 9.89235C156.695 9.78638 156.653 9.68572 156.568 9.59035C156.483 9.49498 156.367 9.4473 156.218 9.4473H155.471V10.3374H156.202Z" fill="white"/>
</svg>
