<svg width="24" height="24" viewBox="0 0 24 24" fill="none" xmlns="http://www.w3.org/2000/svg">
<g clip-path="url(#clip0_291_86)">
<path opacity="0.919" fill-rule="evenodd" clip-rule="evenodd" d="M17.7422 0.0704041C18.1748 -0.0186531 18.4091 0.153222 18.4453 0.586029C18.4084 0.867579 18.3694 1.14883 18.3281 1.42978C18.114 1.84292 17.8249 1.90542 17.4609 1.61728C17.3931 1.50216 17.3618 1.37716 17.3672 1.24228C17.3953 0.959534 17.4344 0.678284 17.4844 0.398529C17.5297 0.252249 17.6156 0.142874 17.7422 0.0704041Z" fill="#000000"/>
<path opacity="0.915" fill-rule="evenodd" clip-rule="evenodd" d="M21.164 1.52342C21.6558 1.47602 21.8667 1.69476 21.7969 2.17967C21.6061 2.49562 21.3795 2.78468 21.1172 3.04686C20.6083 3.17835 20.366 2.98303 20.3906 2.46092C20.6081 2.11106 20.8659 1.79856 21.164 1.52342Z" fill="#000000"/>
<path opacity="0.884" fill-rule="evenodd" clip-rule="evenodd" d="M5.3672 4.14844C5.92853 4.20023 6.09259 4.48148 5.85939 4.99219C5.68684 5.12625 5.49151 5.1653 5.27345 5.10938C5.01447 4.97255 4.92854 4.76161 5.01564 4.47656C5.09847 4.32319 5.21565 4.21381 5.3672 4.14844Z" fill="#000000"/>
<path opacity="0.92" fill-rule="evenodd" clip-rule="evenodd" d="M23.9766 4.75791C23.9766 4.91414 23.9766 5.07042 23.9766 5.22666C23.8875 5.33428 23.7781 5.4202 23.6484 5.48447C23.3769 5.60363 23.0956 5.68959 22.8047 5.74228C22.4993 5.7338 22.3274 5.57756 22.2891 5.27353C22.3113 5.12053 22.3738 4.98769 22.4766 4.87509C22.8725 4.64909 23.2943 4.53972 23.7422 4.54697C23.8142 4.627 23.8924 4.6973 23.9766 4.75791Z" fill="#000000"/>
<path opacity="0.939" fill-rule="evenodd" clip-rule="evenodd" d="M20.0391 9.44524C20.2944 9.42063 20.4898 9.51438 20.625 9.72649C20.6563 10.7421 20.6563 11.7577 20.625 12.7734C20.4459 13.0496 20.2037 13.1199 19.8984 12.9843C19.7862 12.8928 19.7159 12.7756 19.6875 12.6327C19.6562 11.7109 19.6562 10.789 19.6875 9.86712C19.7321 9.65904 19.8493 9.51842 20.0391 9.44524Z" fill="#000000"/>
<path opacity="0.943" fill-rule="evenodd" clip-rule="evenodd" d="M10.1484 9.63271C10.474 9.55185 10.7005 9.66121 10.8281 9.96084C10.8516 11.0076 10.8594 12.0545 10.8516 13.1015C11.1489 13.0937 11.4457 13.1015 11.7422 13.1249C12.0697 13.3106 12.14 13.5684 11.9531 13.8983C11.8688 13.9835 11.7672 14.0382 11.6484 14.0624C11.1797 14.0937 10.7109 14.0937 10.2422 14.0624C10.0729 14.0207 9.9557 13.9192 9.89064 13.7577C9.85937 12.4765 9.85937 11.1952 9.89064 9.91396C9.95439 9.7957 10.0403 9.70195 10.1484 9.63271Z" fill="#000000"/>
<path opacity="0.941" fill-rule="evenodd" clip-rule="evenodd" d="M12.7734 9.63271C13.099 9.55185 13.3255 9.66121 13.4531 9.96084C13.4766 11.0076 13.4844 12.0545 13.4766 13.1015C13.7895 13.0937 14.102 13.1015 14.4141 13.1249C14.6903 13.304 14.7606 13.5462 14.625 13.8515C14.5335 13.9637 14.4163 14.034 14.2734 14.0624C13.8047 14.0937 13.3359 14.0937 12.8672 14.0624C12.7408 14.0301 12.6392 13.9597 12.5625 13.8515C12.4852 12.543 12.4696 11.2305 12.5156 9.91396C12.5794 9.7957 12.6653 9.70195 12.7734 9.63271Z" fill="#000000"/>
<path opacity="0.945" fill-rule="evenodd" clip-rule="evenodd" d="M3.07031 9.72649C3.34419 9.68782 3.55513 9.78157 3.70313 10.0077C3.72655 10.4762 3.73437 10.945 3.72656 11.414C4.21094 11.414 4.69533 11.414 5.17969 11.414C5.17191 10.945 5.17969 10.4762 5.20313 10.0077C5.38031 9.73164 5.62252 9.66133 5.92969 9.7968C6.05536 9.89964 6.12567 10.0324 6.14063 10.1952C6.17189 11.3671 6.17189 12.539 6.14063 13.7109C6.07374 14.0999 5.84719 14.2483 5.46094 14.1562C5.34375 14.1015 5.25783 14.0156 5.20313 13.8984C5.17969 13.3986 5.17186 12.8986 5.17969 12.3984C4.69533 12.3984 4.21094 12.3984 3.72656 12.3984C3.74793 12.9344 3.7245 13.4657 3.65625 13.9921C3.3613 14.2522 3.08005 14.2366 2.8125 13.9452C2.79688 13.8984 2.78125 13.8515 2.76563 13.8046C2.73437 12.5703 2.73437 11.3358 2.76563 10.1015C2.82547 9.94033 2.92703 9.81532 3.07031 9.72649Z" fill="#000000"/>
<path opacity="0.945" fill-rule="evenodd" clip-rule="evenodd" d="M7.14845 9.72657C7.7424 9.71874 8.33617 9.72657 8.9297 9.75001C9.23687 9.87798 9.33845 10.1045 9.23439 10.4297C9.19759 10.5134 9.14293 10.5837 9.07032 10.6406C8.65229 10.7069 8.23042 10.7304 7.8047 10.7109C7.8047 10.9609 7.8047 11.211 7.8047 11.4609C8.14881 11.4532 8.49254 11.4609 8.83595 11.4844C9.1817 11.6844 9.25201 11.9579 9.04689 12.3047C8.98037 12.3497 8.91006 12.3887 8.83595 12.4219C8.49254 12.4453 8.14881 12.4531 7.8047 12.4453C7.8047 12.6953 7.8047 12.9453 7.8047 13.1953C8.18003 13.1875 8.55503 13.1953 8.9297 13.2188C9.23687 13.3467 9.33845 13.5733 9.23439 13.8984C9.17968 14.0156 9.09376 14.1016 8.97657 14.1563C8.3672 14.1875 7.75782 14.1875 7.14845 14.1563C6.98439 14.1172 6.88281 14.0156 6.84376 13.8516C6.8125 12.5859 6.8125 11.3203 6.84376 10.0547C6.92317 9.92073 7.02475 9.81137 7.14845 9.72657Z" fill="#000000"/>
<path opacity="0.944" fill-rule="evenodd" clip-rule="evenodd" d="M16.5235 9.72659C17.4353 9.65529 18.1618 9.98341 18.7031 10.711C19.3348 11.926 19.1238 12.965 18.0703 13.8281C17.1485 14.3333 16.2579 14.2864 15.3985 13.6875C14.4994 12.7824 14.3666 11.7746 15 10.6641C15.3843 10.1462 15.8921 9.8337 16.5235 9.72659ZM16.6172 10.711C16.071 10.8431 15.7351 11.1869 15.6094 11.7422C15.5583 12.4718 15.8786 12.9484 16.5703 13.1719C17.3224 13.2476 17.8146 12.9273 18.0469 12.211C18.0938 11.2187 17.6172 10.7187 16.6172 10.711Z" fill="#000000"/>
<path opacity="0.89" fill-rule="evenodd" clip-rule="evenodd" d="M19.9453 13.6173C20.3547 13.5277 20.6046 13.6839 20.6953 14.086C20.6343 14.4987 20.3999 14.6627 19.9922 14.5782C19.5756 14.275 19.56 13.9547 19.9453 13.6173Z" fill="#000000"/>
<path opacity="0.92" fill-rule="evenodd" clip-rule="evenodd" d="M-0.0234375 19.1953C-0.0234375 19.0391 -0.0234375 18.8828 -0.0234375 18.7266C0.0302991 18.634 0.108424 18.5637 0.210938 18.5156C0.510703 18.3735 0.823205 18.2719 1.14844 18.2109C1.43856 18.2354 1.61043 18.3916 1.66406 18.6797C1.64184 18.8327 1.57934 18.9655 1.47656 19.0781C1.08067 19.3041 0.658795 19.4135 0.210938 19.4062C0.138868 19.3262 0.060743 19.2559 -0.0234375 19.1953Z" fill="#000000"/>
<path opacity="0.914" fill-rule="evenodd" clip-rule="evenodd" d="M2.97656 20.8359C3.41501 20.8444 3.61032 21.0632 3.5625 21.4922C3.3717 21.8081 3.14514 22.0972 2.88281 22.3594C2.35594 22.5141 2.11375 22.3188 2.15625 21.7734C2.28531 21.5621 2.42593 21.359 2.57812 21.1641C2.69362 21.0243 2.82643 20.915 2.97656 20.8359Z" fill="#000000"/>
<path opacity="0.92" fill-rule="evenodd" clip-rule="evenodd" d="M6.02344 22.1484C6.39895 22.149 6.58645 22.3365 6.58594 22.7109C6.55781 22.9937 6.51877 23.2749 6.46875 23.5547C6.34078 23.8619 6.11423 23.9634 5.78906 23.8594C5.60512 23.7495 5.51137 23.5855 5.50781 23.3672C5.5447 23.0857 5.58375 22.8044 5.625 22.5234C5.69273 22.3227 5.82553 22.1977 6.02344 22.1484Z" fill="#000000"/>
<path opacity="0.944" fill-rule="evenodd" clip-rule="evenodd" d="M19.0547 4.45315C16.5909 3.03676 13.9347 2.40395 11.0859 2.55472C9.77962 2.65546 8.49834 2.91328 7.24218 3.32815C7.10938 3.39847 7.00781 3.50003 6.93749 3.63284C6.86812 4.12597 7.07906 4.3369 7.57031 4.26565C10.8903 3.17746 14.156 3.31808 17.3672 4.68753C19.0967 5.47761 20.4951 6.65726 21.5625 8.22659C23.0435 10.7066 23.0279 13.1754 21.5156 15.6328C21.5078 16.805 21.4844 17.9769 21.4453 19.1485C20.7839 18.724 20.0963 18.349 19.3828 18.0235C19.2643 18.0358 19.1549 18.0748 19.0547 18.1407C18.6328 18.4298 18.1953 18.6955 17.7422 18.9375C15.4857 20.0167 13.1107 20.4386 10.6172 20.2032C8.01768 19.9494 5.73642 18.9807 3.77343 17.2969C2.19089 15.8425 1.34714 14.0378 1.24218 11.8828C1.38327 9.56933 2.34421 7.67872 4.12499 6.21097C4.17799 6.10667 4.21705 5.99731 4.24218 5.88284C4.17675 5.47484 3.94237 5.32643 3.53906 5.43753C2.4096 6.33261 1.54241 7.43417 0.937494 8.74222C-0.393105 12.3807 0.364708 15.5135 3.21093 18.1407C5.73707 20.2278 8.6511 21.2668 11.9531 21.2578C14.6548 21.2663 17.1391 20.5475 19.4062 19.1016C20.1602 19.5528 20.918 19.9981 21.6797 20.4375C22.071 20.6051 22.3288 20.4879 22.4531 20.086L22.5 15.961C23.8269 13.6313 23.9832 11.2251 22.9687 8.74222C22.0898 6.92567 20.7851 5.49598 19.0547 4.45315Z" fill="#000000"/>
</g>
<defs>
<clipPath id="clip0_291_86">
<rect width="24" height="24" fill="#000000"/>
</clipPath>
</defs>
</svg>
