<svg width="24" height="24" viewBox="0 0 24 24" fill="none" xmlns="http://www.w3.org/2000/svg">
<rect width="24" height="24" rx="5" fill="white"/>
<path d="M16.25 4H7.75C5.67893 4 4 5.67893 4 7.75V16.25C4 18.3211 5.67893 20 7.75 20H16.25C18.3211 20 20 18.3211 20 16.25V7.75C20 5.67893 18.3211 4 16.25 4Z" fill="#007ACC"/>
<path d="M7.53814 12.0531L7.53308 12.7083H9.61558V18.6258H11.0887V12.7083H13.1712V12.0658C13.1712 11.7102 13.1636 11.4131 13.1535 11.4055C13.1458 11.3953 11.8785 11.3902 10.342 11.3928L7.54583 11.4004L7.53814 12.0531ZM16.9104 11.3818C17.3167 11.4834 17.6266 11.6637 17.911 11.9583C18.0583 12.1158 18.2767 12.4028 18.2945 12.4713C18.2996 12.4916 17.6037 12.959 17.1821 13.2205C17.1669 13.2307 17.1059 13.1646 17.0373 13.0631C16.8316 12.7634 16.6158 12.6338 16.2856 12.611C15.8005 12.578 15.4881 12.832 15.4907 13.2561C15.4907 13.3805 15.5085 13.4541 15.5593 13.5558C15.6659 13.7767 15.864 13.9088 16.4863 14.178C17.6316 14.6707 18.1218 14.9958 18.4266 15.458C18.7669 15.9735 18.8431 16.7964 18.612 17.4085C18.358 18.0738 17.7281 18.5259 16.8418 18.6758C16.5675 18.724 15.9173 18.7164 15.6228 18.6631C14.9802 18.5488 14.3707 18.2313 13.9948 17.8148C13.8475 17.6523 13.5605 17.2281 13.5783 17.1976C13.5859 17.1875 13.652 17.1469 13.7256 17.1037C13.7967 17.0631 14.066 16.9081 14.3199 16.7608L14.7796 16.4941L14.8761 16.6364C15.0107 16.8421 15.3053 17.124 15.4831 17.218C15.9935 17.4872 16.6945 17.4491 17.0399 17.1393C17.1872 17.0046 17.2481 16.865 17.2481 16.6593C17.2481 16.4738 17.2253 16.3926 17.1288 16.2529C17.0043 16.0751 16.7504 15.9253 16.0291 15.6129C15.2037 15.2573 14.8481 15.0364 14.5231 14.6859C14.3351 14.4828 14.1573 14.1576 14.0837 13.8859C14.0228 13.6599 14.0075 13.0935 14.0558 12.865C14.2259 12.0675 14.8278 11.5113 15.6964 11.3462C15.9783 11.2929 16.6335 11.3132 16.9104 11.3818Z" fill="white"/>
</svg>
