<svg width="32" height="32" viewBox="0 0 32 32" fill="none" xmlns="http://www.w3.org/2000/svg">
<path d="M28 4H10C9.47005 4.00158 8.96227 4.2128 8.58753 4.58753C8.2128 4.96227 8.00158 5.47005 8 6V20C8.00158 20.5299 8.2128 21.0377 8.58753 21.4125C8.96227 21.7872 9.47005 21.9984 10 22H28C28.5299 21.9984 29.0377 21.7872 29.4125 21.4125C29.7872 21.0377 29.9984 20.5299 30 20V6C29.9984 5.47005 29.7872 4.96227 29.4125 4.58753C29.0377 4.2128 28.5299 4.00158 28 4ZM28 20H10V6H28V20Z" fill="white"/>
<path d="M18 26H4V16H6V14H4C3.47005 14.0016 2.96227 14.2128 2.58753 14.5875C2.2128 14.9623 2.00158 15.4701 2 16V26C2.00158 26.5299 2.2128 27.0377 2.58753 27.4125C2.96227 27.7872 3.47005 27.9984 4 28H18C18.5299 27.9984 19.0377 27.7872 19.4125 27.4125C19.7872 27.0377 19.9984 26.5299 20 26V24H18V26Z" fill="white"/>
</svg>
